<svg xmlns="http://www.w3.org/2000/svg" xmlns:xlink="http://www.w3.org/1999/xlink" id="Layer_1" x="0" y="0" version="1.1" viewBox="0 0 60 60" xml:space="preserve" style="enable-background:new 0 0 60 60"><style type="text/css">.st0{fill:#fff}.st1{fill:url(#SVGID_1_)}.st2{fill:url(#SVGID_2_)}.st3{fill:url(#SVGID_3_)}.st4{fill:url(#SVGID_4_)}.st5{fill:url(#SVGID_5_)}.st6{fill:url(#SVGID_6_)}.st7{fill:url(#SVGID_7_)}.st8{fill:url(#SVGID_8_)}.st9{fill:url(#SVGID_9_)}.st10{fill:url(#SVGID_10_)}.st11{fill:url(#SVGID_11_)}.st12{fill:none;stroke:#c3f0e9}</style><path d="M10,0.5h40c5.2,0,9.5,4.3,9.5,9.5v40c0,5.2-4.3,9.5-9.5,9.5H10c-5.2,0-9.5-4.3-9.5-9.5V10	C0.5,4.8,4.8,0.5,10,0.5z" class="st0"/><linearGradient id="SVGID_1_" x1="19.512" x2="18.83" y1="61.099" y2="2.463" gradientTransform="matrix(1 0 0 -1 0 62)" gradientUnits="userSpaceOnUse"><stop offset=".198" style="stop-color:#2cd7be"/><stop offset=".651" style="stop-color:#2878db"/><stop offset="1" style="stop-color:#2400ff"/></linearGradient><path d="M11,27.6c0,0.4,0.3,0.7,0.7,0.7h15.2c0.4,0,0.7-0.3,0.7-0.7V12.4c0-0.4-0.3-0.7-0.7-0.7H11.7	c-0.4,0-0.7,0.3-0.7,0.7V27.6z M15.1,16.5c0-0.4,0.3-0.7,0.7-0.7h6.9c0.4,0,0.7,0.3,0.7,0.7v6.9c0,0.4-0.3,0.7-0.7,0.7h-6.9	c-0.4,0-0.7-0.3-0.7-0.7V16.5z" class="st1"/><linearGradient id="SVGID_2_" x1="19.753" x2="19.071" y1="61.096" y2="2.46" gradientTransform="matrix(1 0 0 -1 0 62)" gradientUnits="userSpaceOnUse"><stop offset=".198" style="stop-color:#2cd7be"/><stop offset=".651" style="stop-color:#2878db"/><stop offset="1" style="stop-color:#2400ff"/></linearGradient><path d="M11,48.3c0,0.4,0.3,0.7,0.7,0.7h15.2c0.4,0,0.7-0.3,0.7-0.7V33.1c0-0.4-0.3-0.7-0.7-0.7H11.7	c-0.4,0-0.7,0.3-0.7,0.7V48.3z M15.1,37.2c0-0.4,0.3-0.7,0.7-0.7h6.9c0.4,0,0.7,0.3,0.7,0.7v6.9c0,0.4-0.3,0.7-0.7,0.7h-6.9	c-0.4,0-0.7-0.3-0.7-0.7V37.2z" class="st2"/><linearGradient id="SVGID_3_" x1="40.248" x2="39.566" y1="60.858" y2="2.222" gradientTransform="matrix(1 0 0 -1 0 62)" gradientUnits="userSpaceOnUse"><stop offset=".198" style="stop-color:#2cd7be"/><stop offset=".651" style="stop-color:#2878db"/><stop offset="1" style="stop-color:#2400ff"/></linearGradient><path d="M32.4,11.7c-0.4,0-0.7,0.3-0.7,0.7v15.2c0,0.4,0.3,0.7,0.7,0.7h15.2c0.4,0,0.7-0.3,0.7-0.7V12.4	c0-0.4-0.3-0.7-0.7-0.7H32.4z M44.2,23.4c0,0.4-0.3,0.7-0.7,0.7h-6.9c-0.4,0-0.7-0.3-0.7-0.7v-6.9c0-0.4,0.3-0.7,0.7-0.7h6.9	c0.4,0,0.7,0.3,0.7,0.7V23.4z" class="st3"/><linearGradient id="SVGID_4_" x1="46.782" x2="46.1" y1="60.782" y2="2.146" gradientTransform="matrix(1 0 0 -1 0 62)" gradientUnits="userSpaceOnUse"><stop offset=".198" style="stop-color:#2cd7be"/><stop offset=".651" style="stop-color:#2878db"/><stop offset="1" style="stop-color:#2400ff"/></linearGradient><path d="M47.6,44.9h-2.8c-0.4,0-0.7,0.3-0.7,0.7v2.8c0,0.4,0.3,0.7,0.7,0.7h2.8c0.4,0,0.7-0.3,0.7-0.7v-2.8	C48.3,45.2,48,44.9,47.6,44.9z" class="st4"/><linearGradient id="SVGID_5_" x1="34.196" x2="33.514" y1="60.928" y2="2.292" gradientTransform="matrix(1 0 0 -1 0 62)" gradientUnits="userSpaceOnUse"><stop offset=".198" style="stop-color:#2cd7be"/><stop offset=".651" style="stop-color:#2878db"/><stop offset="1" style="stop-color:#2400ff"/></linearGradient><path d="M35.2,32.4h-2.8c-0.4,0-0.7,0.3-0.7,0.7v2.8c0,0.4,0.3,0.7,0.7,0.7h2.8c0.4,0,0.7-0.3,0.7-0.7v-2.8	C35.9,32.7,35.6,32.4,35.2,32.4z" class="st5"/><linearGradient id="SVGID_6_" x1="38.391" x2="37.709" y1="60.88" y2="2.243" gradientTransform="matrix(1 0 0 -1 0 62)" gradientUnits="userSpaceOnUse"><stop offset=".198" style="stop-color:#2cd7be"/><stop offset=".651" style="stop-color:#2878db"/><stop offset="1" style="stop-color:#2400ff"/></linearGradient><path d="M39.3,36.6h-2.8c-0.4,0-0.7,0.3-0.7,0.7V40c0,0.4,0.3,0.7,0.7,0.7h2.8c0.4,0,0.7-0.3,0.7-0.7v-2.8	C40,36.9,39.7,36.6,39.3,36.6z" class="st6"/><linearGradient id="SVGID_7_" x1="34.292" x2="33.61" y1="60.927" y2="2.291" gradientTransform="matrix(1 0 0 -1 0 62)" gradientUnits="userSpaceOnUse"><stop offset=".198" style="stop-color:#2cd7be"/><stop offset=".651" style="stop-color:#2878db"/><stop offset="1" style="stop-color:#2400ff"/></linearGradient><path d="M35.2,40.7h-2.8c-0.4,0-0.7,0.3-0.7,0.7v2.8c0,0.4,0.3,0.7,0.7,0.7h2.8c0.4,0,0.7-0.3,0.7-0.7v-2.8	C35.9,41,35.6,40.7,35.2,40.7z" class="st7"/><linearGradient id="SVGID_8_" x1="38.487" x2="37.806" y1="60.879" y2="2.242" gradientTransform="matrix(1 0 0 -1 0 62)" gradientUnits="userSpaceOnUse"><stop offset=".198" style="stop-color:#2cd7be"/><stop offset=".651" style="stop-color:#2878db"/><stop offset="1" style="stop-color:#2400ff"/></linearGradient><path d="M39.3,44.9h-2.8c-0.4,0-0.7,0.3-0.7,0.7v2.8c0,0.4,0.3,0.7,0.7,0.7h2.8c0.4,0,0.7-0.3,0.7-0.7v-2.8	C40,45.2,39.7,44.9,39.3,44.9z" class="st8"/><linearGradient id="SVGID_9_" x1="42.586" x2="41.905" y1="60.831" y2="2.195" gradientTransform="matrix(1 0 0 -1 0 62)" gradientUnits="userSpaceOnUse"><stop offset=".198" style="stop-color:#2cd7be"/><stop offset=".651" style="stop-color:#2878db"/><stop offset="1" style="stop-color:#2400ff"/></linearGradient><path d="M43.5,40.7h-2.8c-0.4,0-0.7,0.3-0.7,0.7v2.8c0,0.4,0.3,0.7,0.7,0.7h2.8c0.4,0,0.7-0.3,0.7-0.7v-2.8	C44.2,41,43.9,40.7,43.5,40.7z" class="st9"/><linearGradient id="SVGID_10_" x1="42.49" x2="41.808" y1="60.832" y2="2.196" gradientTransform="matrix(1 0 0 -1 0 62)" gradientUnits="userSpaceOnUse"><stop offset=".198" style="stop-color:#2cd7be"/><stop offset=".651" style="stop-color:#2878db"/><stop offset="1" style="stop-color:#2400ff"/></linearGradient><path d="M43.5,32.4h-2.8c-0.4,0-0.7,0.3-0.7,0.7v2.8c0,0.4,0.3,0.7,0.7,0.7h2.8c0.4,0,0.7-0.3,0.7-0.7v-2.8	C44.2,32.7,43.9,32.4,43.5,32.4z" class="st10"/><linearGradient id="SVGID_11_" x1="46.685" x2="46.004" y1="60.783" y2="2.147" gradientTransform="matrix(1 0 0 -1 0 62)" gradientUnits="userSpaceOnUse"><stop offset=".198" style="stop-color:#2cd7be"/><stop offset=".651" style="stop-color:#2878db"/><stop offset="1" style="stop-color:#2400ff"/></linearGradient><path d="M47.6,36.6h-2.8c-0.4,0-0.7,0.3-0.7,0.7V40c0,0.4,0.3,0.7,0.7,0.7h2.8c0.4,0,0.7-0.3,0.7-0.7v-2.8	C48.3,36.9,48,36.6,47.6,36.6z" class="st11"/><path d="M10,0.5h40c5.2,0,9.5,4.3,9.5,9.5v40c0,5.2-4.3,9.5-9.5,9.5H10c-5.2,0-9.5-4.3-9.5-9.5V10	C0.5,4.8,4.8,0.5,10,0.5z" class="st12"/></svg>