<svg xmlns="http://www.w3.org/2000/svg" xmlns:xlink="http://www.w3.org/1999/xlink" id="Layer_1" x="0" y="0" version="1.1" viewBox="0 0 300 300" xml:space="preserve" style="enable-background:new 0 0 300 300"><style type="text/css">.st0{opacity:.83;fill:url(#SVGID_1_);enable-background:new}.st1{fill-rule:evenodd;clip-rule:evenodd;fill:#474c4e}.st2{clip-path:url(#SVGID_3_)}.st3{opacity:.86;clip-path:url(#SVGID_5_)}.st4{fill-rule:evenodd;clip-rule:evenodd;fill:#899195}.st5{opacity:.41;clip-path:url(#SVGID_7_)}.st6{fill-rule:evenodd;clip-rule:evenodd;fill:#a0adad}.st7{clip-path:url(#SVGID_9_)}.st8{opacity:.77;clip-path:url(#SVGID_11_)}.st9{fill:url(#SVGID_12_);filter:url(#Adobe_OpacityMaskFilter)}.st10{mask:url(#m_1_)}.st11{fill:url(#SVGID_13_)}.st12{opacity:.75;clip-path:url(#SVGID_15_)}.st13{fill-rule:evenodd;clip-rule:evenodd;fill:#fff}.st14{opacity:.7;clip-path:url(#SVGID_17_)}.st15{fill:url(#SVGID_18_)}.st16{fill:url(#SVGID_19_)}.st17{fill:url(#SVGID_20_)}.st18{fill:url(#SVGID_21_)}.st19{fill:#fff}.st20{opacity:.93;clip-path:url(#SVGID_23_)}.st21{clip-path:url(#SVGID_25_)}.st22{fill:url(#SVGID_26_);filter:url(#Adobe_OpacityMaskFilter_1_)}.st23{mask:url(#D_1_)}.st24{fill:url(#SVGID_27_)}.st25{clip-path:url(#SVGID_29_)}.st26{clip-path:url(#SVGID_31_)}.st27{fill:url(#SVGID_32_);filter:url(#Adobe_OpacityMaskFilter_2_)}.st28{mask:url(#H_1_)}</style><linearGradient id="SVGID_1_" x1="179.031" x2="179.526" y1="668.626" y2="668.626" gradientTransform="matrix(1.371586e-14 -223.9969 -223.9969 -1.371586e-14 149921.3438 40307.4609)" gradientUnits="userSpaceOnUse"><stop offset="0" style="stop-color:#ddc454"/><stop offset=".318" style="stop-color:#ddc454"/><stop offset="1" style="stop-color:#ddc454"/></linearGradient><path d="M95.7,149.6c0-30.6,24.8-55.4,55.4-55.4s55.4,24.8,55.4,55.4s-24.8,55.4-55.4,55.4S95.7,180.2,95.7,149.6" class="st0"/><path d="M46.6,208.8l104.3-62.2L255,207.8L150.9,270L46.6,208.8z" class="st1"/><g><defs><rect id="SVGID_2_" width="901.4" height="506.8" x="-292.2" y="-43.9"/></defs><clipPath id="SVGID_3_"><use xlink:href="#SVGID_2_" style="overflow:visible"/></clipPath><g class="st2"><g transform="matrix(1.33333 0 0 -1.33333 -684.119 878.667)"><defs><rect id="SVGID_4_" width="104.3" height="179.8" x="613.2" y="480.6"/></defs><clipPath id="SVGID_5_"><use xlink:href="#SVGID_4_" style="overflow:visible"/></clipPath><g class="st3"><path d="M626.3,638l78.3-46.6l-0.2-88.2L626.3,549L626.3,638z" class="st4"/></g></g><g transform="matrix(1.33333 0 0 -1.33333 -684.119 878.667)"><defs><rect id="SVGID_6_" width="104.3" height="180.7" x="535" y="479.8"/></defs><clipPath id="SVGID_7_"><use xlink:href="#SVGID_6_" style="overflow:visible"/></clipPath><g class="st5"><path d="M626.3,638l-78.2-46.6v-88.9l78.2,46.6V638z" class="st6"/></g></g><g><g transform="matrix(1.33333 0 0 -1.33333 -684.119 878.667)"><defs><rect id="SVGID_8_" width="112.8" height="73.4" x="570.8" y="479.7"/></defs><clipPath id="SVGID_9_"><use xlink:href="#SVGID_8_" style="overflow:visible"/></clipPath><g class="st7"><g><defs><path id="SVGID_10_" d="M584.9,516.4c0,15.2,18.9,27.5,42.3,27.5c23.4,0,42.3-12.3,42.3-27.5c0-15.2-18.9-27.5-42.3-27.5 C603.9,488.8,584.9,501.2,584.9,516.4"/></defs><clipPath id="SVGID_11_"><use xlink:href="#SVGID_10_" style="overflow:visible"/></clipPath><g class="st8"><defs><filter id="Adobe_OpacityMaskFilter" width="84.6" height="55" x="584.9" y="-543.9" filterUnits="userSpaceOnUse"><feColorMatrix type="matrix" values="1 0 0 0 0 0 1 0 0 0 0 0 1 0 0 0 0 0 1 0"/></filter></defs><mask id="m_1_" width="84.6" height="55" x="584.9" y="-543.9" maskUnits="userSpaceOnUse"><radialGradient id="SVGID_12_" cx="643.121" cy="159.091" r=".495" gradientTransform="matrix(85.4338 0 0 55.5966 -54146.4414 -8360.3525)" gradientUnits="userSpaceOnUse"><stop offset="0" style="stop-color:#fff"/><stop offset=".626" style="stop-color:#fff"/><stop offset="1" style="stop-color:#fff;stop-opacity:0"/></radialGradient><path d="M-11615.5-11525.1H12711v24326.5h-24326.5V-11525.1z" class="st9"/></mask><g class="st10"><radialGradient id="SVGID_13_" cx="645.687" cy="158.201" r=".495" gradientTransform="matrix(113.9115 0 0 -74.1286 -72923.9219 12243.5508)" gradientUnits="userSpaceOnUse"><stop offset="0" style="stop-color:#1d1d1b"/><stop offset=".626" style="stop-color:#1d1d1b"/><stop offset="1" style="stop-color:#1d1d1b"/></radialGradient><path d="M584.9,516.4c0,15.2,18.9,27.5,42.3,27.5c23.4,0,42.3-12.3,42.3-27.5c0-15.2-18.9-27.5-42.3-27.5 C603.9,488.8,584.9,501.2,584.9,516.4" class="st11"/></g></g></g></g></g></g></g></g><g><g><defs><rect id="SVGID_14_" width="104.6" height="179.8" x="46.6" y="90.2"/></defs><clipPath id="SVGID_15_"><use xlink:href="#SVGID_14_" style="overflow:visible"/></clipPath><g class="st12"><path d="M547.9,502.4l78.3-45.9v88.2L548,591.4L547.9,502.4z" class="st13" transform="matrix(1.3362 0 0 -1.33333 -685.588 878.667)"/></g></g></g><g><g><defs><rect id="SVGID_16_" width="104.6" height="179.7" x="150.7" y="90.3"/></defs><clipPath id="SVGID_17_"><use xlink:href="#SVGID_16_" style="overflow:visible"/></clipPath><g class="st14"><path d="M704.8,591.3l-78.3-46.6v-88.2l78.1,46.6L704.8,591.3z" class="st13" transform="matrix(1.3362 0 0 -1.33333 -686.492 878.667)"/></g></g></g><linearGradient id="SVGID_18_" x1="475.967" x2="549.796" y1="667.617" y2="667.617" gradientTransform="matrix(-148.1674 33.266 33.266 148.1674 4719.7153 -104765.6719)" gradientUnits="userSpaceOnUse"><stop offset="0" style="stop-color:#fff"/><stop offset="1" style="stop-color:#d1d1d1"/></linearGradient><path d="M105.9,144.3c-8.5,8-2.7,27.2,3.3,41.4c10.1,11.7,25.1,19.1,41.8,19.1c21.3,0,39.8-12,49-29.7l-50.9-4.6	l8.7-30.4l-3.1-16.3C154.7,123.9,120.1,131,105.9,144.3" class="st15"/><linearGradient id="SVGID_19_" x1="180.594" x2="181.089" y1="667.456" y2="667.456" gradientTransform="matrix(-148.1674 33.266 33.266 148.1674 4719.7153 -104765.6719)" gradientUnits="userSpaceOnUse"><stop offset="0" style="stop-color:#fff"/><stop offset="1" style="stop-color:#d1d1d1"/></linearGradient><path d="M95.8,149.6c0,16.8,7.5,31.8,19.2,41.9c-3.2-15.7-7.7-58.2,36.1-62.8c12.3,4.9,13.7,10.6,13.7,10.6l7.3,5.3	l-8-31.8l-45-8.3C104.9,114.5,95.8,131,95.8,149.6" class="st16"/><linearGradient id="SVGID_20_" x1="177.864" x2="178.359" y1="668.639" y2="668.639" gradientTransform="matrix(112.4052 -112.4052 -112.4052 -112.4052 55315.9219 95333.2344)" gradientUnits="userSpaceOnUse"><stop offset="0" style="stop-color:#fff"/><stop offset="1" style="stop-color:#cecece"/></linearGradient><path d="M180.1,145.7l-20.2,4.2c0,0-11.5-17.1-27.5,4.1c8.7,37.8,47.6,34.3,60.2,32.1c8.6-9.7,13.8-22.5,13.8-36.5	c0-18.8-9.4-35.4-23.7-45.4L180.1,145.7z" class="st17"/><linearGradient id="SVGID_21_" x1="179.13" x2="179.625" y1="665.963" y2="665.963" gradientTransform="matrix(34.8997 151.071 151.071 -34.8997 -106714.3203 -3729.9165)" gradientUnits="userSpaceOnUse"><stop offset="0" style="stop-color:#cecece"/><stop offset="1" style="stop-color:#fff"/></linearGradient><path d="M110.9,111.5c9.9-1.6,28.5-2.7,41.9,6.3c15.7,10.6,17.9,20.6,19.2,28.5c1,6-18.5,22.4-18.5,22.4	s25.8,0.2,33.9-28.3c3.2-11.2,2.7-22.5,1.2-31.4c-9.9-9.1-23.1-14.7-37.6-14.7C135.3,94.3,121,100.9,110.9,111.5" class="st18"/><path d="M132.3,148.7c0-11,8.9-19.9,19.9-19.9c11,0,19.9,8.9,19.9,19.9c0,11-8.9,19.9-19.9,19.9	C141.2,168.6,132.3,159.7,132.3,148.7" class="st19"/><g><defs><rect id="SVGID_22_" width="50.4" height="50.4" x="127" y="123.5"/></defs><clipPath id="SVGID_23_"><use xlink:href="#SVGID_22_" style="overflow:visible"/></clipPath><g class="st20"><g transform="matrix(1.33333 0 0 -1.33333 -684.119 878.667)"><defs><path id="SVGID_24_" d="M608.3,547.5c0,10.4,8.5,18.9,18.9,18.9c10.4,0,18.9-8.5,18.9-18.9c0-10.4-8.5-18.9-18.9-18.9 C616.8,528.6,608.3,537,608.3,547.5"/></defs><clipPath id="SVGID_25_"><use xlink:href="#SVGID_24_" style="overflow:visible"/></clipPath><g class="st21"><defs><filter id="Adobe_OpacityMaskFilter_1_" width="37.8" height="37.8" x="608.3" y="-566.4" filterUnits="userSpaceOnUse"><feColorMatrix type="matrix" values="1 0 0 0 0 0 1 0 0 0 0 0 1 0 0 0 0 0 1 0"/></filter></defs><mask id="D_1_" width="37.8" height="37.8" x="608.3" y="-566.4" maskUnits="userSpaceOnUse"><radialGradient id="SVGID_26_" cx="637.988" cy="160.06" r=".495" gradientTransform="matrix(38.1846 0 0 38.1846 -23563.4336 -5650.5928)" gradientUnits="userSpaceOnUse"><stop offset="0" style="stop-color:#fff"/><stop offset=".849" style="stop-color:#fff"/><stop offset="1" style="stop-color:#fff;stop-opacity:0"/></radialGradient><path d="M-11615.5-11525.1H12711v24326.5h-24326.5V-11525.1z" class="st22"/></mask><g class="st23"><radialGradient id="SVGID_27_" cx="643.728" cy="158.764" r=".495" gradientTransform="matrix(50.9126 0 0 -50.9126 -32146.6777 8630.5459)" gradientUnits="userSpaceOnUse"><stop offset="0" style="stop-color:#fff"/><stop offset=".849" style="stop-color:#fff"/><stop offset="1" style="stop-color:#fff"/></radialGradient><path d="M608.3,547.5c0,10.4,8.5,18.9,18.9,18.9c10.4,0,18.9-8.5,18.9-18.9c0-10.4-8.5-18.9-18.9-18.9 C616.8,528.6,608.3,537,608.3,547.5" class="st24"/></g></g></g></g></g><g><g><defs><rect id="SVGID_28_" width="208.7" height="123.4" x="46.6" y="28"/></defs><clipPath id="SVGID_29_"><use xlink:href="#SVGID_28_" style="overflow:visible"/></clipPath><g class="st25"><g transform="matrix(1.33333 0 0 -1.33333 -684.119 878.667)"><defs><polygon id="SVGID_30_" points="548.1 591.4 626.3 638 704.5 591.3 626.3 545.4"/></defs><clipPath id="SVGID_31_"><use xlink:href="#SVGID_30_" style="overflow:visible"/></clipPath><g class="st26"><defs><filter id="Adobe_OpacityMaskFilter_2_" width="156.5" height="92.6" x="548.1" y="-638" filterUnits="userSpaceOnUse"><feColorMatrix type="matrix" values="1 0 0 0 0 0 1 0 0 0 0 0 1 0 0 0 0 0 1 0"/></filter></defs><mask id="H_1_" width="156.5" height="92.6" x="548.1" y="-638" maskUnits="userSpaceOnUse"><linearGradient id="SVGID_32_" x1="646.925" x2="647.42" y1="155.107" y2="155.107" gradientTransform="matrix(0 -186.9994 186.9994 0 -28457.1484 121437.4141)" gradientUnits="userSpaceOnUse"><stop offset="0" style="stop-color:#fff;stop-opacity:0"/><stop offset=".375" style="stop-color:#fff;stop-opacity:0"/><stop offset="1" style="stop-color:#fff;stop-opacity:.7"/></linearGradient><path d="M-11615.5-11525.1H12711v24326.5h-24326.5V-11525.1z" class="st27"/></mask><g class="st28"><path d="M548.1,591.4l78.2,46.6l78.3-46.6l-78.3-45.9L548.1,591.4z" class="st13"/></g></g></g></g></g></g></svg>